<?xml version="1.0" encoding="UTF-8"?>
<svg xmlns="http://www.w3.org/2000/svg" xmlns:xlink="http://www.w3.org/1999/xlink" width="13px" height="13px" viewBox="0 0 13 13" version="1.1">
<g id="surface1">
<path style=" stroke:none;fill-rule:nonzero;fill:rgb(0%,0%,0%);fill-opacity:1;" d="M 11.492188 0.132812 C 11.304688 0.160156 11.144531 0.21875 10.996094 0.3125 C 10.933594 0.355469 10.226562 1.046875 9.421875 1.851562 C 8.066406 3.210938 7.960938 3.324219 7.894531 3.480469 C 7.738281 3.832031 7.742188 4.207031 7.90625 4.550781 C 7.980469 4.703125 8.125 4.855469 9.472656 6.203125 C 11.105469 7.832031 11.050781 7.785156 11.460938 7.871094 C 12.039062 7.988281 12.640625 7.621094 12.824219 7.039062 C 12.878906 6.855469 12.890625 6.542969 12.84375 6.367188 C 12.761719 6.070312 12.695312 5.984375 11.683594 4.964844 L 10.710938 3.988281 L 11.652344 3.054688 C 12.164062 2.539062 12.621094 2.070312 12.660156 2.015625 C 12.90625 1.660156 12.929688 1.136719 12.71875 0.742188 C 12.5625 0.460938 12.179688 0.179688 11.886719 0.144531 C 11.820312 0.136719 11.738281 0.125 11.699219 0.121094 C 11.664062 0.117188 11.570312 0.121094 11.492188 0.132812 Z M 11.492188 0.132812 "/>
<path style=" stroke:none;fill-rule:nonzero;fill:rgb(0%,0%,0%);fill-opacity:1;" d="M 1.066406 0.175781 C 0.835938 0.253906 0.699219 0.335938 0.546875 0.492188 C 0.171875 0.863281 0.0898438 1.417969 0.328125 1.898438 C 0.410156 2.0625 0.765625 2.425781 5.664062 7.328125 C 10.726562 12.398438 10.914062 12.585938 11.09375 12.667969 C 11.464844 12.847656 11.824219 12.847656 12.183594 12.675781 C 12.664062 12.441406 12.949219 11.867188 12.835938 11.367188 C 12.738281 10.945312 13.15625 11.386719 7.425781 5.648438 C 4.550781 2.769531 2.144531 0.378906 2.082031 0.339844 C 1.800781 0.148438 1.359375 0.078125 1.066406 0.175781 Z M 1.066406 0.175781 "/>
<path style=" stroke:none;fill-rule:nonzero;fill:rgb(0%,0%,0%);fill-opacity:1;" d="M 1.054688 5.082031 C 0.703125 5.195312 0.445312 5.417969 0.292969 5.734375 C 0.214844 5.898438 0.199219 5.964844 0.1875 6.160156 C 0.171875 6.429688 0.207031 6.605469 0.320312 6.824219 C 0.386719 6.960938 0.789062 7.371094 3.167969 9.757812 C 4.691406 11.285156 5.992188 12.570312 6.054688 12.609375 C 6.230469 12.726562 6.441406 12.796875 6.660156 12.8125 C 7.035156 12.835938 7.324219 12.722656 7.59375 12.457031 C 7.976562 12.070312 8.058594 11.558594 7.816406 11.050781 C 7.746094 10.894531 7.53125 10.675781 5.007812 8.144531 C 3.503906 6.636719 2.207031 5.351562 2.125 5.289062 C 1.902344 5.121094 1.726562 5.0625 1.417969 5.054688 C 1.246094 5.046875 1.121094 5.058594 1.054688 5.082031 Z M 1.054688 5.082031 "/>
<path style=" stroke:none;fill-rule:nonzero;fill:rgb(0%,0%,0%);fill-opacity:1;" d="M 1.015625 9.949219 C 0.679688 10.039062 0.40625 10.265625 0.246094 10.597656 C 0.152344 10.78125 0.144531 10.820312 0.136719 11.058594 C 0.125 11.351562 0.171875 11.550781 0.304688 11.761719 C 0.394531 11.90625 1.074219 12.59375 1.222656 12.6875 C 1.910156 13.128906 2.847656 12.761719 3.054688 11.972656 C 3.128906 11.691406 3.097656 11.390625 2.960938 11.109375 C 2.878906 10.9375 2.0625 10.121094 1.890625 10.039062 C 1.613281 9.90625 1.292969 9.871094 1.015625 9.949219 Z M 1.015625 9.949219 "/>
</g>
</svg>
