<?xml version="1.0" encoding="UTF-8"?>
<svg xmlns="http://www.w3.org/2000/svg" xmlns:xlink="http://www.w3.org/1999/xlink" width="40px" height="40px" viewBox="0 0 40 40" version="1.1">
<g id="surface1">
<path style=" stroke:none;fill-rule:nonzero;fill:rgb(100%,100%,100%);fill-opacity:1;" d="M 35.359375 0.40625 C 34.785156 0.488281 34.296875 0.671875 33.839844 0.960938 C 33.640625 1.089844 31.464844 3.214844 28.992188 5.695312 C 24.824219 9.878906 24.496094 10.230469 24.289062 10.710938 C 23.808594 11.792969 23.824219 12.945312 24.328125 14 C 24.558594 14.472656 25 14.945312 29.152344 19.089844 C 34.175781 24.105469 34 23.960938 35.265625 24.214844 C 37.039062 24.574219 38.894531 23.449219 39.457031 21.65625 C 39.632812 21.089844 39.664062 20.136719 39.519531 19.59375 C 39.273438 18.671875 39.0625 18.414062 35.945312 15.28125 L 32.960938 12.273438 L 35.847656 9.398438 C 37.433594 7.816406 38.832031 6.375 38.953125 6.199219 C 39.710938 5.113281 39.785156 3.496094 39.136719 2.289062 C 38.65625 1.414062 37.472656 0.550781 36.574219 0.441406 C 36.367188 0.414062 36.113281 0.382812 36 0.367188 C 35.886719 0.359375 35.601562 0.375 35.359375 0.40625 Z M 35.359375 0.40625 "/>
<path style=" stroke:none;fill-rule:nonzero;fill:rgb(100%,100%,100%);fill-opacity:1;" d="M 3.28125 0.542969 C 2.566406 0.785156 2.152344 1.03125 1.679688 1.511719 C 0.527344 2.65625 0.273438 4.359375 1.007812 5.839844 C 1.265625 6.351562 2.359375 7.464844 17.425781 22.550781 C 33 38.152344 33.574219 38.71875 34.136719 38.984375 C 35.273438 39.535156 36.382812 39.535156 37.488281 39 C 38.96875 38.28125 39.839844 36.519531 39.496094 34.976562 C 39.199219 33.679688 40.480469 35.03125 22.847656 17.375 C 14 8.519531 6.601562 1.167969 6.40625 1.039062 C 5.535156 0.457031 4.183594 0.238281 3.28125 0.542969 Z M 3.28125 0.542969 "/>
<path style=" stroke:none;fill-rule:nonzero;fill:rgb(100%,100%,100%);fill-opacity:1;" d="M 3.238281 15.632812 C 2.167969 15.984375 1.367188 16.671875 0.902344 17.640625 C 0.664062 18.152344 0.617188 18.351562 0.574219 18.953125 C 0.527344 19.785156 0.640625 20.320312 0.984375 21 C 1.191406 21.414062 2.425781 22.679688 9.753906 30.023438 C 14.441406 34.71875 18.441406 38.671875 18.632812 38.800781 C 19.167969 39.160156 19.816406 39.375 20.488281 39.425781 C 21.648438 39.496094 22.535156 39.152344 23.367188 38.328125 C 24.542969 37.144531 24.800781 35.558594 24.054688 34 C 23.832031 33.519531 23.175781 32.847656 15.40625 25.054688 C 10.785156 20.425781 6.792969 16.472656 6.535156 16.28125 C 5.855469 15.761719 5.3125 15.574219 4.359375 15.550781 C 3.839844 15.527344 3.449219 15.558594 3.238281 15.632812 Z M 3.238281 15.632812 "/>
<path style=" stroke:none;fill-rule:nonzero;fill:rgb(100%,100%,100%);fill-opacity:1;" d="M 3.128906 30.609375 C 2.089844 30.886719 1.246094 31.59375 0.753906 32.609375 C 0.464844 33.175781 0.441406 33.289062 0.414062 34.03125 C 0.382812 34.929688 0.527344 35.535156 0.9375 36.183594 C 1.214844 36.632812 3.304688 38.753906 3.761719 39.039062 C 5.878906 40.398438 8.761719 39.273438 9.398438 36.839844 C 9.625 35.96875 9.527344 35.046875 9.113281 34.183594 C 8.863281 33.648438 6.351562 31.136719 5.816406 30.886719 C 4.960938 30.480469 3.984375 30.375 3.128906 30.609375 Z M 3.128906 30.609375 "/>
</g>
</svg>
